<svg width="138" height="32" viewBox="0 0 138 32" fill="none" xmlns="http://www.w3.org/2000/svg">
<g clip-path="url(#clip0_215_5338)">
<path d="M114.767 23.7985H111.445L113.523 10.2461H116.844L114.767 23.7985Z" fill="#00579F"/>
<path d="M126.807 10.577C126.152 10.3028 125.113 10 123.828 10C120.548 10 118.238 11.8453 118.224 14.4836C118.197 16.4301 119.878 17.5113 121.135 18.1603C122.42 18.8235 122.857 19.2564 122.857 19.8475C122.844 20.7554 121.818 21.1739 120.862 21.1739C119.536 21.1739 118.826 20.9582 117.746 20.4531L117.309 20.2365L116.844 23.2787C117.623 23.6532 119.058 23.9854 120.548 24C124.033 24 126.302 22.1832 126.329 19.3717C126.342 17.829 125.454 16.6468 123.541 15.6809C122.379 15.0608 121.668 14.6427 121.668 14.0082C121.681 13.4314 122.269 12.8406 123.581 12.8406C124.66 12.8117 125.454 13.0855 126.055 13.3595L126.355 13.5035L126.807 10.577Z" fill="#00579F"/>
<path d="M131.221 18.9973C131.495 18.2188 132.547 15.2055 132.547 15.2055C132.533 15.2344 132.82 14.4126 132.984 13.908L133.216 15.0758C133.216 15.0758 133.845 18.3198 133.982 18.9973C133.463 18.9973 131.877 18.9973 131.221 18.9973ZM135.321 10.2461H132.752C131.96 10.2461 131.358 10.491 131.016 11.3705L126.083 23.7983H129.567C129.567 23.7983 130.141 22.1256 130.265 21.7653C130.647 21.7653 134.037 21.7653 134.529 21.7653C134.624 22.2411 134.925 23.7983 134.925 23.7983H138L135.321 10.2461Z" fill="#00579F"/>
<path d="M108.671 10.2461L105.419 19.4875L105.063 17.6133C104.462 15.4506 102.576 13.1009 100.471 11.9326L103.45 23.7841H106.963L112.183 10.2461H108.671Z" fill="#00579F"/>
<path d="M102.398 10.2461H97.0547L97 10.5199C101.168 11.6446 103.929 14.3555 105.063 17.6138L103.902 11.3853C103.71 10.5197 103.123 10.2746 102.398 10.2461Z" fill="#FAA61A"/>
</g>
<path d="M54.1637 28.2159V26.7213C54.1725 26.5955 54.1542 26.4694 54.1098 26.3513C54.0655 26.2331 53.9962 26.1257 53.9065 26.0361C53.8169 25.9465 53.7089 25.8769 53.5898 25.8318C53.4708 25.7867 53.3434 25.7672 53.2161 25.7747C53.0496 25.7639 52.8832 25.7976 52.7342 25.8721C52.5853 25.9465 52.4593 26.0591 52.3694 26.1981C52.2875 26.0633 52.1702 25.9528 52.0301 25.8783C51.8899 25.8037 51.7321 25.768 51.5731 25.7747C51.4345 25.7678 51.2965 25.7968 51.1727 25.8589C51.0489 25.9209 50.9437 26.0138 50.8675 26.1284V25.8345H50.3433V28.2159H50.8725V26.8956C50.861 26.8142 50.868 26.7312 50.8928 26.6527C50.9177 26.5742 50.9598 26.5021 51.0162 26.4416C51.0726 26.3811 51.1418 26.3337 51.2189 26.3028C51.296 26.2719 51.3791 26.2583 51.4622 26.2629C51.8099 26.2629 51.9864 26.4871 51.9864 26.8906V28.2159H52.5156V26.8956C52.505 26.8143 52.5125 26.7317 52.5377 26.6536C52.5629 26.5754 52.605 26.5037 52.6612 26.4434C52.7174 26.3831 52.7863 26.3357 52.863 26.3045C52.9397 26.2733 53.0224 26.2591 53.1053 26.2629C53.4631 26.2629 53.6345 26.4871 53.6345 26.8906V28.2159H54.1637ZM61.996 25.8345H61.1392V25.1121H60.61V25.8345H60.1211V26.3078H60.61V27.3939C60.61 27.9468 60.8267 28.2757 61.4466 28.2757C61.6782 28.2764 61.9053 28.2125 62.1018 28.0913L61.9506 27.6479C61.8101 27.7308 61.6505 27.7771 61.4869 27.7825C61.2248 27.7825 61.1392 27.623 61.1392 27.3839V26.3078H61.996V25.8345ZM66.4666 25.7747C66.3388 25.771 66.2123 25.8014 66.1005 25.8628C65.9888 25.9241 65.8958 26.0142 65.8315 26.1234V25.8345H65.3124V28.2159H65.8365V26.8807C65.8365 26.4871 66.0079 26.2679 66.3507 26.2679C66.4628 26.2664 66.5741 26.2867 66.6782 26.3277L66.8395 25.8394C66.7198 25.7971 66.5937 25.7752 66.4666 25.7747ZM59.7078 26.0238C59.4111 25.8494 59.07 25.7629 58.725 25.7747C58.1151 25.7747 57.722 26.0636 57.722 26.5369C57.722 26.9255 58.0143 27.1647 58.5536 27.2394L58.8006 27.2743C59.0878 27.3141 59.2239 27.3888 59.2239 27.5234C59.2239 27.7077 59.0324 27.8124 58.6746 27.8124C58.3867 27.8205 58.1045 27.7328 57.8732 27.5632L57.6262 27.9668C57.9315 28.1776 58.2973 28.2858 58.6695 28.2757C59.365 28.2757 59.7682 27.9518 59.7682 27.4985C59.7682 27.08 59.4507 26.8607 58.9266 26.786L58.6796 26.7511C58.4528 26.7213 58.2714 26.6765 58.2714 26.517C58.2714 26.3426 58.4427 26.238 58.73 26.238C58.9938 26.2419 59.2523 26.3122 59.481 26.4423L59.7078 26.0238ZM73.7495 25.7747C73.6217 25.771 73.4952 25.8014 73.3835 25.8628C73.2717 25.9241 73.1788 26.0142 73.1145 26.1234V25.8345H72.5953V28.2159H73.1195V26.8807C73.1195 26.4871 73.2909 26.2679 73.6336 26.2679C73.7457 26.2664 73.857 26.2867 73.9612 26.3277L74.1225 25.8394C74.0028 25.7971 73.8766 25.7752 73.7495 25.7747ZM66.9957 27.0251C66.9888 27.1929 67.0174 27.3603 67.0798 27.5164C67.1422 27.6726 67.237 27.8141 67.358 27.9319C67.4791 28.0497 67.6238 28.1412 67.7827 28.2004C67.9417 28.2596 68.1114 28.2852 68.281 28.2757C68.5957 28.2913 68.9049 28.19 69.1479 27.9917L68.8959 27.5732C68.7147 27.7097 68.4937 27.7849 68.2659 27.7874C68.0694 27.7756 67.885 27.6902 67.7501 27.5485C67.6152 27.4069 67.5401 27.2197 67.5401 27.0252C67.5401 26.8306 67.6152 26.6434 67.7501 26.5018C67.885 26.3601 68.0694 26.2747 68.2659 26.2629C68.4937 26.2655 68.7147 26.3406 68.8959 26.4772L69.1479 26.0586C68.9049 25.8604 68.5957 25.7591 68.281 25.7747C68.1114 25.7651 67.9417 25.7908 67.7828 25.85C67.6238 25.9092 67.4791 26.0006 67.3581 26.1184C67.237 26.2362 67.1422 26.3777 67.0798 26.5339C67.0174 26.69 66.9888 26.8574 66.9957 27.0251ZM71.9048 27.0251V25.8345H71.3806V26.1234C71.2912 26.0095 71.1754 25.9183 71.043 25.8576C70.9106 25.797 70.7654 25.7685 70.6196 25.7747C70.2948 25.7904 69.9886 25.929 69.7643 26.1618C69.5401 26.3946 69.415 26.7037 69.415 27.0252C69.415 27.3466 69.5401 27.6558 69.7643 27.8885C69.9886 28.1213 70.2948 28.26 70.6196 28.2757C70.7654 28.2818 70.9106 28.2534 71.043 28.1927C71.1754 28.132 71.2912 28.0409 71.3806 27.9269V28.2159H71.9048V27.0251ZM69.9543 27.0251C69.9624 26.8846 70.012 26.7495 70.0969 26.6365C70.1817 26.5235 70.2982 26.4375 70.432 26.3891C70.5657 26.3408 70.7108 26.3321 70.8494 26.3643C70.9881 26.3965 71.1141 26.4681 71.2121 26.5703C71.31 26.6725 71.3756 26.8007 71.4007 26.9393C71.4258 27.0778 71.4093 27.2206 71.3533 27.35C71.2972 27.4794 71.2041 27.5898 71.0854 27.6675C70.9667 27.7452 70.8275 27.7869 70.6851 27.7874C70.5853 27.7887 70.4863 27.7696 70.3944 27.7313C70.3024 27.6929 70.2195 27.6361 70.1508 27.5645C70.0821 27.4929 70.0292 27.408 69.9954 27.3152C69.9616 27.2223 69.9476 27.1236 69.9543 27.0251ZM63.629 25.7747C63.3021 25.7917 62.9946 25.9332 62.771 26.1695C62.5473 26.4057 62.425 26.7184 62.4295 27.042C62.4341 27.3655 62.5652 27.6747 62.7955 27.9047C63.0257 28.1348 63.337 28.2677 63.6643 28.2757C64.0239 28.2882 64.3755 28.1693 64.6521 27.9419L64.3951 27.5583C64.196 27.7159 63.9495 27.8036 63.6945 27.8073C63.5213 27.8218 63.3492 27.769 63.2147 27.6602C63.0802 27.5514 62.9938 27.3951 62.9738 27.2244H64.763C64.7681 27.1597 64.7731 27.0949 64.7731 27.0251C64.7681 26.2828 64.3044 25.7747 63.629 25.7747ZM63.6189 26.238C63.7772 26.235 63.9303 26.2941 64.0446 26.4024C64.1589 26.5107 64.2252 26.6594 64.2288 26.8159H62.9788C62.988 26.656 63.0601 26.5061 63.1797 26.3981C63.2994 26.2901 63.457 26.2326 63.6189 26.238ZM76.7685 27.0251V24.8779H76.2443V26.1234C76.1549 26.0095 76.0391 25.9183 75.9067 25.8576C75.7743 25.797 75.6291 25.7685 75.4833 25.7747C75.1585 25.7904 74.8523 25.929 74.628 26.1618C74.4038 26.3946 74.2787 26.7037 74.2787 27.0252C74.2787 27.3466 74.4038 27.6558 74.628 27.8886C74.8523 28.1214 75.1585 28.26 75.4833 28.2757C75.6291 28.2818 75.7743 28.2534 75.9067 28.1927C76.0391 28.132 76.1549 28.0409 76.2443 27.9269V28.2159H76.7685V27.0251ZM77.6423 27.8708C77.6748 27.8706 77.7071 27.8769 77.7371 27.8894C77.766 27.9013 77.7923 27.9185 77.8146 27.9401C77.8367 27.9617 77.8545 27.9873 77.8668 28.0155C77.8794 28.0445 77.8859 28.0758 77.8859 28.1073C77.8859 28.1389 77.8794 28.1702 77.8668 28.1992C77.8544 28.2273 77.8367 28.2528 77.8146 28.2743C77.7922 28.2959 77.7659 28.3132 77.7371 28.3253C77.7072 28.338 77.6749 28.3444 77.6423 28.3442C77.5943 28.3447 77.5473 28.3312 77.5071 28.3054C77.4668 28.2796 77.4352 28.2426 77.4161 28.1992C77.4035 28.1701 77.397 28.1389 77.397 28.1073C77.397 28.0758 77.4035 28.0445 77.4161 28.0155C77.4283 27.9873 77.446 27.9617 77.468 27.9401C77.4903 27.9183 77.5168 27.9011 77.5458 27.8894C77.5764 27.8768 77.6092 27.8705 77.6423 27.8708ZM77.6423 28.292C77.6671 28.2922 77.6917 28.2872 77.7145 28.2775C77.7364 28.2681 77.7563 28.2547 77.7732 28.238C77.808 28.2033 77.8275 28.1563 77.8275 28.1075C77.8275 28.0586 77.808 28.0117 77.7732 27.9769C77.7563 27.9603 77.7364 27.947 77.7145 27.9378C77.6917 27.9282 77.6671 27.9234 77.6423 27.9236C77.617 27.9234 77.592 27.9282 77.5686 27.9378C77.5464 27.9469 77.5262 27.9601 77.5091 27.9769C77.4743 28.0116 77.4547 28.0586 77.4547 28.1075C77.4547 28.1564 77.4743 28.2033 77.5091 28.238C77.5262 28.2548 77.5464 28.2682 77.5686 28.2775C77.5919 28.2872 77.617 28.2921 77.6423 28.292ZM77.6564 27.9966C77.68 27.9951 77.7033 28.0018 77.7224 28.0155C77.7301 28.0217 77.7361 28.0296 77.7401 28.0385C77.7442 28.0474 77.746 28.0571 77.7456 28.0669C77.7459 28.0752 77.7444 28.0835 77.7412 28.0913C77.738 28.099 77.7332 28.106 77.7271 28.1118C77.7125 28.1246 77.694 28.1323 77.6746 28.1336L77.7474 28.2165H77.6905L77.623 28.1341H77.6012V28.2165H77.5537V27.9966H77.6564ZM77.6012 28.0379V28.0965H77.6558C77.6663 28.097 77.6767 28.0944 77.6858 28.0892C77.6894 28.0868 77.6924 28.0834 77.6944 28.0795C77.6963 28.0756 77.6972 28.0712 77.6969 28.0669C77.6971 28.0626 77.6962 28.0583 77.6943 28.0545C77.6923 28.0507 77.6894 28.0474 77.6858 28.0451C77.6767 28.0399 77.6663 28.0374 77.6558 28.0379H77.6012ZM74.818 27.0251C74.8262 26.8846 74.8757 26.7495 74.9606 26.6365C75.0455 26.5235 75.162 26.4375 75.2957 26.3892C75.4294 26.3408 75.5745 26.3322 75.7132 26.3644C75.8518 26.3966 75.9778 26.4682 76.0758 26.5704C76.1737 26.6725 76.2393 26.8008 76.2643 26.9393C76.2894 27.0779 76.2729 27.2207 76.2169 27.3501C76.1609 27.4795 76.0678 27.5898 75.949 27.6675C75.8303 27.7453 75.6912 27.7869 75.5488 27.7874C75.449 27.7887 75.35 27.7696 75.258 27.7313C75.1661 27.6929 75.0832 27.6361 75.0145 27.5645C74.9458 27.4929 74.8929 27.408 74.8591 27.3151C74.8253 27.2223 74.8113 27.1236 74.818 27.0251ZM57.1172 27.0251V25.8345H56.593V26.1234C56.5035 26.0095 56.3877 25.9183 56.2553 25.8576C56.1229 25.797 55.9777 25.7685 55.8319 25.7747C55.5071 25.7904 55.2009 25.929 54.9767 26.1618C54.7524 26.3946 54.6274 26.7037 54.6274 27.0252C54.6274 27.3466 54.7524 27.6558 54.9767 27.8885C55.2009 28.1213 55.5071 28.26 55.8319 28.2757C55.9777 28.2818 56.1229 28.2534 56.2553 28.1927C56.3877 28.132 56.5035 28.0409 56.593 27.9269V28.2159H57.1172V27.0251ZM55.1667 27.0251C55.1748 26.8846 55.2244 26.7495 55.3093 26.6365C55.3941 26.5235 55.5106 26.4375 55.6444 26.3892C55.7781 26.3408 55.9232 26.3322 56.0618 26.3644C56.2004 26.3966 56.3265 26.4682 56.4244 26.5704C56.5224 26.6725 56.5879 26.8008 56.613 26.9394C56.6381 27.0779 56.6216 27.2207 56.5656 27.3501C56.5095 27.4795 56.4164 27.5898 56.2977 27.6676C56.179 27.7453 56.0398 27.7869 55.8975 27.7874C55.7977 27.7887 55.6987 27.7696 55.6067 27.7313C55.5147 27.6929 55.4318 27.6361 55.3632 27.5645C55.2945 27.4929 55.2416 27.408 55.2078 27.3151C55.174 27.2223 55.16 27.1236 55.1667 27.0251Z" fill="#231F20"/>
<path d="M67.4695 7.69336H59.5303V21.7962H67.4695V7.69336Z" fill="#FF5F00"/>
<path d="M60.0339 14.7532C60.0326 13.395 60.344 12.0543 60.9444 10.8326C61.5448 9.61094 62.4185 8.5403 63.4994 7.70175C62.1609 6.66176 60.5534 6.015 58.8606 5.8354C57.1678 5.65581 55.458 5.95062 53.9267 6.68614C52.3954 7.42166 51.1044 8.56821 50.2011 9.99474C49.2979 11.4213 48.8188 13.0702 48.8188 14.7532C48.8188 16.4361 49.2979 18.085 50.2011 19.5116C51.1044 20.9381 52.3954 22.0847 53.9267 22.8202C55.458 23.5557 57.1678 23.8505 58.8606 23.6709C60.5534 23.4913 62.1609 22.8446 63.4994 21.8046C62.4185 20.966 61.5448 19.8954 60.9444 18.6737C60.344 17.452 60.0326 16.1114 60.0339 14.7532Z" fill="#EB001B"/>
<path d="M78.1815 14.7532C78.1816 16.436 77.7027 18.085 76.7995 19.5115C75.8963 20.9381 74.6052 22.0846 73.074 22.8202C71.5427 23.5557 69.833 23.8505 68.1402 23.6709C66.4474 23.4913 64.8399 22.8446 63.5015 21.8046C64.5814 20.9652 65.4544 19.8944 66.0547 18.6729C66.655 17.4514 66.967 16.1111 66.967 14.7532C66.967 13.3952 66.655 12.0549 66.0547 10.8334C65.4544 9.61195 64.5814 8.54114 63.5015 7.70175C64.8399 6.66175 66.4474 6.015 68.1402 5.8354C69.833 5.65581 71.5427 5.95062 73.074 6.68615C74.6052 7.42168 75.8963 8.56824 76.7995 9.99477C77.7027 11.4213 78.1816 13.0703 78.1815 14.7532Z" fill="#F79E1B"/>
<path d="M77.3116 20.3032V20.0145H77.4293V19.9557H77.1294V20.0145H77.2472V20.3032H77.3116ZM77.8939 20.3032V19.9551H77.802L77.6962 20.1945L77.5904 19.9551H77.4984V20.3032H77.5634V20.0406L77.6625 20.267H77.7299L77.829 20.04V20.3032H77.8939Z" fill="#F79E1B"/>
<path d="M0 0H29.9255V16.1949L28.4443 18.5151L29.9255 20.58V30H0V14.7332L0.92577 13.6659L0 12.645V0Z" fill="#016FD0"/>
<path d="M5.80908 20.9053V16.1953H10.7837L11.3174 16.8928L11.8688 16.1953H29.9254V20.5805C29.9254 20.5805 29.4532 20.9006 28.9071 20.9053H18.9087L18.307 20.1628V20.9053H16.3351V19.6379C16.3351 19.6379 16.0657 19.8148 15.4834 19.8148H14.8122V20.9053H11.8266L11.2936 20.1928L10.7525 20.9053H5.80908Z" fill="white"/>
<path d="M0 12.6452L1.12179 10.0234H3.06182L3.69845 11.4921V10.0234H6.11008L6.48907 11.0849L6.85648 10.0234H17.6822V10.5571C17.6822 10.5571 18.2513 10.0234 19.1866 10.0234L22.6991 10.0357L23.3248 11.4852V10.0234H25.3429L25.8984 10.856V10.0234H27.9351V14.7334H25.8984L25.3661 13.8981V14.7334H22.4009L22.1028 13.9909H21.3056L21.0123 14.7334H19.0014C18.1966 14.7334 17.6822 14.2107 17.6822 14.2107V14.7334H14.6503L14.0486 13.9909V14.7334H2.77442L2.47643 13.9909H1.68184L1.38597 14.7334H0V12.6452Z" fill="white"/>
<path d="M1.51891 10.6035L0.00585938 14.1302H0.990935L1.27011 13.424H2.8931L3.17083 14.1302H4.17761L2.666 10.6035H1.51891ZM2.07871 11.4243L2.57342 12.6583H1.58256L2.07871 11.4243Z" fill="#016FD0"/>
<path d="M4.28174 14.1302V10.6035L5.68159 10.6087L6.49579 12.8825L7.29049 10.6035H8.67914V14.1302H7.79966V11.5316L6.86739 14.1302H6.09609L5.16122 11.5316V14.1302H4.28174Z" fill="#016FD0"/>
<path d="M9.28076 14.1302V10.6035H12.1506V11.3924H10.1695V11.9956H12.1044V12.7381H10.1695V13.3645H12.1506V14.1302H9.28076Z" fill="#016FD0"/>
<path d="M12.6597 10.6035V14.1302H13.5391V12.8773H13.9095L14.964 14.1302H16.0387L14.8815 12.8309C15.3564 12.7907 15.8463 12.3821 15.8463 11.7477C15.8463 11.0055 15.2653 10.6035 14.6168 10.6035H12.6597ZM13.5391 11.3924H14.5445C14.7856 11.3924 14.9611 11.5815 14.9611 11.7636C14.9611 11.9979 14.7338 12.1348 14.5575 12.1348H13.5391V11.3924Z" fill="#016FD0"/>
<path d="M17.1036 14.1302H16.2056V10.6035H17.1036V14.1302Z" fill="#016FD0"/>
<path d="M19.2328 14.1302H19.039C18.1012 14.1302 17.5317 13.3895 17.5317 12.3814C17.5317 11.3483 18.0948 10.6035 19.2791 10.6035H20.2512V11.4388H19.2436C18.7628 11.4388 18.4228 11.8149 18.4228 12.3901C18.4228 13.073 18.8116 13.3599 19.3717 13.3599H19.6032L19.2328 14.1302Z" fill="#016FD0"/>
<path d="M21.1468 10.6035L19.6338 14.1302H20.6189L20.898 13.424H22.521L22.7988 14.1302H23.8055L22.2939 10.6035H21.1468ZM21.7066 11.4243L22.2014 12.6583H21.2105L21.7066 11.4243Z" fill="#016FD0"/>
<path d="M23.9082 14.1302V10.6035H25.0264L26.4541 12.8193V10.6035H27.3335V14.1302H26.2516L24.7877 11.8564V14.1302H23.9082Z" fill="#016FD0"/>
<path d="M6.41113 20.3021V16.7754H9.28102V17.5643H7.29987V18.1675H9.23473V18.91H7.29987V19.5364H9.28102V20.3021H6.41113Z" fill="#016FD0"/>
<path d="M20.4736 20.3021V16.7754H23.3435V17.5643H21.3624V18.1675H23.288V18.91H21.3624V19.5364H23.3435V20.3021H20.4736Z" fill="#016FD0"/>
<path d="M9.39216 20.3021L10.7895 18.5605L9.35889 16.7754H10.4669L11.3189 17.8789L12.1738 16.7754H13.2384L11.8266 18.5387L13.2265 20.3021H12.1187L11.2914 19.2159L10.4843 20.3021H9.39216Z" fill="#016FD0"/>
<path d="M13.3311 16.7754V20.3021H14.2337V19.1884H15.1594C15.9428 19.1884 16.5365 18.7718 16.5365 17.9616C16.5365 17.2904 16.0709 16.7754 15.2737 16.7754H13.3311ZM14.2337 17.573H15.2086C15.4617 17.573 15.6426 17.7284 15.6426 17.979C15.6426 18.2144 15.4626 18.385 15.2057 18.385H14.2337V17.573Z" fill="#016FD0"/>
<path d="M16.9185 16.7754V20.3021H17.7979V19.0492H18.1682L19.2228 20.3021H20.2975L19.1403 19.0028C19.6152 18.9626 20.1051 18.554 20.1051 17.9195C20.1051 17.1774 19.5241 16.7754 18.8756 16.7754H16.9185ZM17.7979 17.5643H18.8033C19.0444 17.5643 19.2199 17.7534 19.2199 17.9355C19.2199 18.1698 18.9926 18.3067 18.8163 18.3067H17.7979V17.5643Z" fill="#016FD0"/>
<path d="M23.7508 20.3021V19.5364H25.511C25.7714 19.5364 25.8842 19.3953 25.8842 19.2406C25.8842 19.0923 25.7717 18.9424 25.511 18.9424H24.7156C24.0242 18.9424 23.6392 18.5202 23.6392 17.8862C23.6392 17.3207 23.9918 16.7754 25.0191 16.7754H26.7318L26.3615 17.5689H24.8803C24.5971 17.5689 24.51 17.7178 24.51 17.8601C24.51 18.0063 24.6177 18.1675 24.834 18.1675H25.6672C26.4379 18.1675 26.7723 18.6058 26.7723 19.1797C26.7723 19.7967 26.3997 20.3021 25.6252 20.3021H23.7508Z" fill="#016FD0"/>
<path d="M26.9784 20.3021V19.5364H28.7385C28.9989 19.5364 29.1117 19.3953 29.1117 19.2406C29.1117 19.0923 28.9993 18.9424 28.7385 18.9424H27.9431C27.2517 18.9424 26.8667 18.5202 26.8667 17.8862C26.8667 17.3207 27.2193 16.7754 28.2467 16.7754H29.9593L29.589 17.5689H28.1078C27.8247 17.5689 27.7375 17.7178 27.7375 17.8601C27.7375 18.0063 27.8452 18.1675 28.0615 18.1675H28.8947C29.6654 18.1675 29.9999 18.6058 29.9999 19.1797C29.9999 19.7967 29.6272 20.3021 28.8528 20.3021H26.9784Z" fill="#016FD0"/>
<defs>
<clipPath id="clip0_215_5338">
<rect width="41" height="14" fill="white" transform="translate(97 10)"/>
</clipPath>
</defs>
</svg>
