<svg width="64" height="14" viewBox="0 0 64 14" fill="none" xmlns="http://www.w3.org/2000/svg">
<g id="dhl">
<path id="Shape" d="M63.4371 0V14H0V0H63.4371Z" fill="#FECC00"/>
<path id="Shape_2" fill-rule="evenodd" clip-rule="evenodd" d="M20.4538 5.84975C20.3196 6.03139 20.1418 6.27793 19.962 6.52722L19.9618 6.52744C19.7701 6.79328 19.5761 7.06223 19.4305 7.25891C19.2872 7.45275 19.0284 7.80468 19.8863 7.80468H24.4037C24.4037 7.80468 25.1317 6.81422 25.7421 5.98583C26.5723 4.85892 25.8139 2.51416 22.8458 2.51416H11.1566L9.12988 5.26789H20.1762C20.7339 5.26789 20.7263 5.48013 20.4538 5.84975ZM17.1348 8.48378C16.2768 8.48378 16.5356 8.13113 16.6789 7.93729C16.8327 7.72957 17.0427 7.44326 17.2469 7.16495L17.2471 7.16462L17.2474 7.16427L17.2482 7.16317L17.2507 7.15975C17.4198 6.9292 17.5846 6.70452 17.7098 6.53498C17.9827 6.16537 17.9899 5.95312 17.4315 5.95312H12.3796L8.30908 11.4851H18.2357C21.5143 11.4851 23.3396 9.25514 23.9023 8.48414C23.9023 8.48378 18.0422 8.48378 17.1348 8.48378ZM29.4156 11.4856H23.5923C23.5923 11.4856 25.7988 8.48425 25.8006 8.48461L31.6232 8.48389L29.4156 11.4856ZM38.6169 2.51416L36.3833 5.54799H33.7845L36.017 2.51416H30.1955L26.3008 7.80468H40.5441L44.4377 2.51416H38.6169ZM37.8358 11.4854H32.0146C32.0146 11.4854 34.2212 8.48401 34.2233 8.48438H40.0445L37.8358 11.4854ZM0 9.66792V10.3054H8.10994L8.57846 9.66792H0ZM0 8.48393H9.45016L8.98056 9.12065H0V8.48393ZM0 11.4853H7.24112L7.70747 10.8515H0V11.4853ZM63.437 10.3049H54.8911L55.3603 9.66749H63.437V10.3049ZM54.0229 11.4854H63.437V10.8516H54.4889L54.0229 11.4854ZM55.7627 9.12133L56.2309 8.48389H63.4373V9.12133H55.7627ZM48.6059 7.80468L52.5002 2.51416H46.3347C46.3326 2.51416 42.4375 7.80468 42.4375 7.80468H48.6059ZM41.306 9.34549C41.5128 9.06539 41.9384 8.48389 41.9384 8.48389V8.48425H55.1652L52.9565 11.4852H43.6074C41.2215 11.4852 40.575 10.3331 41.306 9.34549Z" fill="#D50029"/>
</g>
</svg>
