<svg width="13" height="20" viewBox="0 0 13 20" fill="none" xmlns="http://www.w3.org/2000/svg">
<path fill-rule="evenodd" clip-rule="evenodd" d="M7.76791 0.505882C7.95059 0.18871 8.29199 0.00892569 8.6414 0.000336632C8.69132 -0.000890373 8.74053 0.00121019 8.79037 0.00707723C8.92329 0.0227227 9.05501 0.0649363 9.17633 0.135149L12.4875 2.04948C12.9728 2.33033 13.145 2.96822 12.8667 3.45152L5.49278 16.2519C5.44269 16.3385 5.37317 16.4123 5.28964 16.4676L1.01022 19.2987C0.804544 19.4349 0.539084 19.4433 0.325129 19.3204C0.111173 19.1974 -0.0143033 18.9644 0.00130394 18.719L0.312781 13.5961C0.317655 13.4968 0.34546 13.3999 0.394036 13.313L7.76791 0.505882ZM11.6072 3.03361L8.76329 1.39564L7.8898 2.91228L10.7337 4.55024L11.6072 3.03361ZM7.24653 4.03122L10.0837 5.66918L4.687 15.0386L1.84308 13.4006L7.24653 4.03122ZM3.6984 15.9621L1.54515 14.7218L1.37587 17.4989L3.6984 15.9621Z" fill="#B2B2B2"/>
</svg>
