<svg width="85" height="14" viewBox="0 0 85 14" fill="none" xmlns="http://www.w3.org/2000/svg">
<g id="hermes">
<g id="Group 3">
<mask id="mask0_43_2918" style="mask-type:alpha" maskUnits="userSpaceOnUse" x="0" y="0" width="19" height="4">
<path id="Clip 2" fill-rule="evenodd" clip-rule="evenodd" d="M0 0L3.19725 3.79384H17.5245L18.4938 0H0Z" fill="white"/>
</mask>
<g mask="url(#mask0_43_2918)">
<path id="Fill 1" fill-rule="evenodd" clip-rule="evenodd" d="M0 0L3.19725 3.79384H17.5245L18.4938 0H0Z" fill="url(#paint0_linear_43_2918)"/>
</g>
</g>
<g id="Group 6">
<mask id="mask1_43_2918" style="mask-type:alpha" maskUnits="userSpaceOnUse" x="0" y="0" width="4" height="4">
<path id="Clip 5" fill-rule="evenodd" clip-rule="evenodd" d="M0 0V0.97876L2.94564 3.79384H3.19725L0 0Z" fill="white"/>
</mask>
<g mask="url(#mask1_43_2918)">
<path id="Fill 4" fill-rule="evenodd" clip-rule="evenodd" d="M0 0V0.97876L2.94564 3.79384H3.19725L0 0Z" fill="url(#paint1_linear_43_2918)"/>
</g>
</g>
<g id="Group 9">
<mask id="mask2_43_2918" style="mask-type:alpha" maskUnits="userSpaceOnUse" x="4" y="4" width="14" height="5">
<path id="Clip 8" fill-rule="evenodd" clip-rule="evenodd" d="M7.79269 8.24026L4.66064 4.53027H17.3006L16.3685 8.24026H7.79269Z" fill="white"/>
</mask>
<g mask="url(#mask2_43_2918)">
<path id="Fill 7" fill-rule="evenodd" clip-rule="evenodd" d="M7.79269 8.24026L4.66064 4.53027H17.3006L16.3685 8.24026H7.79269Z" fill="url(#paint2_linear_43_2918)"/>
</g>
</g>
<g id="Group 12">
<mask id="mask3_43_2918" style="mask-type:alpha" maskUnits="userSpaceOnUse" x="4" y="4" width="4" height="5">
<path id="Clip 11" fill-rule="evenodd" clip-rule="evenodd" d="M7.56893 8.24026L4.66064 5.46239V4.53027L7.79269 8.24026H7.56893Z" fill="white"/>
</mask>
<g mask="url(#mask3_43_2918)">
<path id="Fill 10" fill-rule="evenodd" clip-rule="evenodd" d="M7.56893 8.24026L4.66064 5.46239V4.53027L7.79269 8.24026H7.56893Z" fill="url(#paint3_linear_43_2918)"/>
</g>
</g>
<g id="Group 15">
<mask id="mask4_43_2918" style="mask-type:alpha" maskUnits="userSpaceOnUse" x="9" y="9" width="8" height="4">
<path id="Clip 14" fill-rule="evenodd" clip-rule="evenodd" d="M12.994 12.901L9.82471 9.17236H16.126L15.1566 12.901H12.994Z" fill="white"/>
</mask>
<g mask="url(#mask4_43_2918)">
<path id="Fill 13" fill-rule="evenodd" clip-rule="evenodd" d="M12.994 12.901L9.82471 9.17236H16.126L15.1566 12.901H12.994Z" fill="url(#paint4_linear_43_2918)"/>
</g>
</g>
<g id="Group 18">
<mask id="mask5_43_2918" style="mask-type:alpha" maskUnits="userSpaceOnUse" x="9" y="9" width="4" height="4">
<path id="Clip 17" fill-rule="evenodd" clip-rule="evenodd" d="M9.82471 10.1045L12.8076 12.901H12.994L9.82471 9.17236V10.1045Z" fill="white"/>
</mask>
<g mask="url(#mask5_43_2918)">
<path id="Fill 16" fill-rule="evenodd" clip-rule="evenodd" d="M9.82471 10.1045L12.8076 12.901H12.994L9.82471 9.17236V10.1045Z" fill="url(#paint5_linear_43_2918)"/>
</g>
</g>
<g id="Group 21">
<mask id="mask6_43_2918" style="mask-type:alpha" maskUnits="userSpaceOnUse" x="15" y="9" width="4" height="4">
<path id="Clip 20" fill-rule="evenodd" clip-rule="evenodd" d="M15.7974 12.901H17.5902L18.5393 9.18115H16.7465L15.7974 12.901Z" fill="white"/>
</mask>
<g mask="url(#mask6_43_2918)">
<path id="Fill 19" fill-rule="evenodd" clip-rule="evenodd" d="M15.7974 12.901H17.5902L18.5393 9.18115H16.7465L15.7974 12.901Z" fill="url(#paint6_linear_43_2918)"/>
</g>
</g>
<g id="Group 24">
<mask id="mask7_43_2918" style="mask-type:alpha" maskUnits="userSpaceOnUse" x="17" y="4" width="3" height="5">
<path id="Clip 23" fill-rule="evenodd" clip-rule="evenodd" d="M17.0098 8.2056H18.7762L19.7254 4.54736H17.9325L17.0098 8.2056Z" fill="white"/>
</mask>
<g mask="url(#mask7_43_2918)">
<path id="Fill 22" fill-rule="evenodd" clip-rule="evenodd" d="M17.0098 8.2056H18.7762L19.7254 4.54736H17.9325L17.0098 8.2056Z" fill="url(#paint7_linear_43_2918)"/>
</g>
</g>
<g id="Group 27">
<mask id="mask8_43_2918" style="mask-type:alpha" maskUnits="userSpaceOnUse" x="18" y="0" width="3" height="4">
<path id="Clip 26" fill-rule="evenodd" clip-rule="evenodd" d="M19.0927 0.0195312L18.1699 3.77652H19.9759L20.8987 0.0195312H19.0927Z" fill="white"/>
</mask>
<g mask="url(#mask8_43_2918)">
<path id="Fill 25" fill-rule="evenodd" clip-rule="evenodd" d="M19.0927 0.0195312L18.1699 3.77652H19.9759L20.8987 0.0195312H19.0927Z" fill="url(#paint8_linear_43_2918)"/>
</g>
</g>
<path id="Fill 28" fill-rule="evenodd" clip-rule="evenodd" d="M75.892 12.7758C75.7825 12.6088 75.7934 12.5317 76.0873 11.3881C76.3278 10.4526 76.4267 10.1719 76.5227 10.1534C76.6 10.1385 76.6785 10.1989 76.7307 10.3135C76.8597 10.5968 77.0991 10.7115 77.7419 10.798C78.5559 10.9075 80.5614 10.8445 80.9021 10.6988C81.218 10.5636 81.442 10.264 81.5344 9.85296C81.6157 9.49065 81.5463 9.25695 81.3117 9.10329C81.2206 9.0437 80.5011 8.81641 79.7125 8.59826C78.1305 8.16066 77.7192 7.96238 77.4553 7.51017C77.304 7.25085 77.2916 7.15923 77.3204 6.50514C77.3869 4.98723 78.1126 3.51661 79.0235 3.05318C79.5948 2.76248 79.9827 2.72656 82.5466 2.72656H84.983L84.8018 3.39231C84.587 4.18193 84.4754 4.41793 84.2588 4.54172C84.1461 4.60621 83.589 4.64457 82.4029 4.66983C80.9445 4.70078 80.6813 4.72352 80.5147 4.83278C80.2653 4.9963 80.1256 5.2169 80.0665 5.54056C79.9813 6.00716 80.1621 6.12116 81.7225 6.5851C83.6582 7.1606 84.028 7.37903 84.2074 8.05256C84.3848 8.71867 84.0924 10.4307 83.6391 11.3792C83.3277 12.0309 82.9829 12.398 82.423 12.6738L81.9419 12.9107L78.9749 12.9317L76.0079 12.9527L75.892 12.7758ZM50.2753 12.8339C50.2131 12.7716 50.1622 12.6826 50.1621 12.636C50.162 12.5893 50.6839 10.5107 51.3218 8.01689C51.9597 5.52303 52.4821 3.40357 52.4825 3.30698C52.483 3.21039 52.4146 3.07566 52.3304 3.00757C52.0155 2.7525 52.1293 2.72688 53.5759 2.72688C55.3236 2.72688 55.3574 2.74768 55.0875 3.65655C55.0255 3.86556 54.9876 4.04945 55.0034 4.06536C55.0192 4.08112 55.1414 3.942 55.2749 3.75609C56.0259 2.7104 56.1431 2.6585 57.7605 2.65642C58.9596 2.6549 58.9985 2.65958 59.3799 2.85283C59.7848 3.05795 60.0038 3.36715 60.1442 3.9325L60.2025 4.16662L60.5993 3.57443C61.1973 2.68182 61.2586 2.65735 62.9015 2.65678C64.1493 2.65634 64.2556 2.66692 64.5928 2.82534C64.7907 2.91825 65.0081 3.0568 65.0759 3.13316C65.2807 3.36391 65.4205 3.78128 65.4205 4.16252C65.4205 4.38549 65.0483 6.01424 64.4455 8.42893C63.8922 10.6449 63.4879 12.4039 63.5107 12.4948C63.5328 12.5828 63.6154 12.6894 63.694 12.7315C64.0257 12.9091 63.8001 12.947 62.412 12.947C60.8974 12.947 60.8142 12.929 60.8142 12.6006C60.8142 12.505 61.2029 10.8972 61.6779 9.02746C62.1529 7.15767 62.5416 5.51684 62.5416 5.38095C62.5416 4.85728 62.0889 4.61314 61.2861 4.70397C60.5194 4.7907 60.1884 5.03562 59.9211 5.71375C59.8031 6.01302 58.2716 11.7737 58.1854 12.2418C58.1435 12.4703 58.1631 12.533 58.3227 12.6809C58.425 12.7757 58.4877 12.8744 58.462 12.9002C58.4363 12.9259 57.7954 12.947 57.038 12.947C55.5699 12.947 55.4882 12.9285 55.4882 12.5948C55.4882 12.4961 55.8769 10.9003 56.3519 9.04862C56.8269 7.19683 57.2156 5.54987 57.2156 5.38858C57.2156 4.82201 56.6852 4.57464 55.8152 4.73543C55.2381 4.84209 54.9813 5.01058 54.7577 5.42881C54.5544 5.80941 52.8972 11.9971 52.8972 12.3758C52.8972 12.5079 52.9506 12.6193 53.0412 12.6758C53.1203 12.7253 53.1851 12.8065 53.1851 12.8563C53.1851 12.9262 52.863 12.947 51.7868 12.947C50.6115 12.947 50.3704 12.929 50.2753 12.8339ZM42.9344 12.8339C42.8722 12.7717 42.8213 12.6785 42.8213 12.6268C42.8213 12.5751 43.3553 10.4497 44.008 7.9037C45.1126 3.59461 45.1871 3.26317 45.0859 3.10872C45.0261 3.01746 44.9455 2.94282 44.9068 2.94282C44.8681 2.94282 44.8365 2.89424 44.8365 2.83486C44.8365 2.74259 45.0392 2.7269 46.2289 2.7269C48.0479 2.7269 47.9835 2.67213 47.6679 3.95044C47.6392 4.06661 47.7581 3.95195 48.0038 3.62656C48.2131 3.3494 48.4665 3.03365 48.5671 2.92483L48.75 2.7269H50.032C50.7372 2.7269 51.3141 2.7485 51.3141 2.77498C51.3141 2.93303 50.9154 4.30059 50.8319 4.42892C50.67 4.67787 50.4064 4.733 49.2629 4.75697C48.3376 4.77633 48.1422 4.80095 47.8954 4.92927C47.3792 5.19781 47.2893 5.43438 46.3946 8.88059C45.9424 10.6223 45.5526 12.1339 45.5284 12.2398C45.4957 12.3826 45.5306 12.4871 45.6642 12.646C45.7632 12.7636 45.8442 12.8795 45.8442 12.9034C45.8442 12.9274 45.215 12.9471 44.4458 12.9471C43.2705 12.9471 43.0294 12.929 42.9344 12.8339ZM21.0279 12.8606C20.8911 12.7237 20.9254 12.347 21.1534 11.4829C22.2259 7.41739 23.8357 1.05865 23.8419 0.864252C23.8472 0.694396 23.8018 0.58255 23.691 0.492872C23.6038 0.422266 23.5325 0.313011 23.5325 0.250107C23.5325 0.149129 23.7132 0.135742 25.0748 0.135742C26.4236 0.135742 26.6322 0.150857 26.738 0.256729C26.905 0.423634 26.871 0.619184 26.2807 2.88482C26.0053 3.9416 25.7979 4.8242 25.8198 4.84608C25.8417 4.86796 26.697 4.88595 27.7205 4.88595H29.5813L29.6502 4.72401C29.7403 4.51227 30.5698 1.30537 30.6265 0.949828C30.6636 0.716707 30.6422 0.649341 30.4841 0.501005C30.1106 0.150856 30.1681 0.135742 31.867 0.135742C33.5641 0.135742 33.6087 0.145602 33.6087 0.521301C33.6087 0.69418 32.7214 4.24935 31.8457 7.58494C30.8209 11.4884 30.6475 12.2443 30.731 12.4458C30.7772 12.5574 30.8606 12.6662 30.9164 12.6875C30.9721 12.7089 31.0177 12.7761 31.0177 12.8367C31.0177 12.9323 30.8097 12.9469 29.4487 12.9469C27.7556 12.9469 27.7069 12.9363 27.7069 12.5671C27.7069 12.4533 28.0146 11.1752 28.3907 9.72721C28.7667 8.27919 29.0744 7.0509 29.0744 6.99778C29.0744 6.91933 28.7122 6.9012 27.1492 6.90148L25.2239 6.90177L24.5553 9.54649C24.1875 11.0011 23.8878 12.2494 23.8895 12.3204C23.8911 12.3914 23.9669 12.5241 24.058 12.6153C24.1491 12.7063 24.2112 12.8182 24.196 12.8639C24.1559 12.9838 21.1479 12.9806 21.0279 12.8606ZM73.1841 6.20531C73.4431 4.91584 72.9938 4.41261 71.6432 4.47947C70.5861 4.53187 70.0719 4.96968 69.6595 6.16832C69.5846 6.38582 69.5234 6.57482 69.5234 6.58842C69.5234 6.60202 70.3287 6.61318 71.3128 6.61318H73.1022L73.1841 6.20531ZM67.8781 12.8721C67.1326 12.6768 66.7438 12.3791 66.4282 11.762L66.1763 11.2694L66.1766 10.1828C66.1769 9.30675 66.2097 8.94983 66.3456 8.34101C66.7744 6.42099 67.4991 4.77094 68.2744 3.94901C69.1656 3.00437 70.2288 2.6445 72.15 2.63731C74.0528 2.63018 74.9123 3.00674 75.332 4.03149C75.5245 4.50169 75.5044 5.93021 75.2931 6.78489C75.092 7.59818 74.9072 8.01476 74.6938 8.13632C74.5646 8.20995 73.8856 8.24083 71.7902 8.26847L69.0552 8.30445L68.9256 8.80826C68.7539 9.47531 68.7426 10.0425 68.8952 10.3303C68.9692 10.47 69.1471 10.6217 69.3591 10.7261C69.6757 10.882 69.7912 10.8953 70.8185 10.8941C72.3469 10.8923 73.0345 10.7099 73.6494 10.1432C73.9319 9.88289 74.1293 9.77932 74.1293 9.89174C74.1293 10.0306 73.5352 12.1255 73.4481 12.2942C73.1581 12.8547 72.3833 13.0202 70.0745 13.0146C68.6687 13.0113 68.3244 12.989 67.8781 12.8721ZM40.2925 6.34321C40.4962 5.5338 40.4461 5.12053 40.1053 4.79903C39.594 4.31681 38.2625 4.34186 37.6014 4.8461C37.3075 5.0703 37.0283 5.52632 36.8002 6.15464L36.6338 6.61311H38.4292H40.2245L40.2925 6.34321ZM35.1482 12.9147C34.2947 12.7233 33.8372 12.3655 33.4867 11.6154C33.2954 11.2062 33.2852 11.1325 33.2912 10.2119C33.2958 9.50021 33.3404 9.03807 33.4581 8.4846C33.8296 6.73587 34.6315 4.80052 35.2973 4.0456C36.0427 3.20028 37.0324 2.77434 38.5341 2.65235C39.9839 2.53467 41.1975 2.72058 41.7924 3.15148C42.4008 3.59217 42.6053 4.10562 42.6053 5.19191C42.6053 5.98383 42.3993 7.15216 42.1624 7.70276C41.9168 8.27343 41.9448 8.26868 38.8727 8.26868H36.2053L36.1338 8.53858C35.7981 9.80566 35.8547 10.3435 36.3582 10.6718C36.7251 10.9109 38.0138 10.9983 39.0495 10.8542C39.8243 10.7464 40.3429 10.5348 40.7379 10.1655C41.2928 9.64624 41.3279 9.7126 41.0516 10.7601C40.5998 12.4726 40.5172 12.608 39.777 12.8496C39.2643 13.017 35.8198 13.0655 35.1482 12.9147Z" fill="#484649"/>
</g>
<defs>
<linearGradient id="paint0_linear_43_2918" x1="6.56908" y1="4.35353" x2="9.20803" y2="-2.70934" gradientUnits="userSpaceOnUse">
<stop stop-color="#EDF6FD"/>
<stop offset="1" stop-color="#1D97CF"/>
</linearGradient>
<linearGradient id="paint1_linear_43_2918" x1="-1.29715" y1="2.47947" x2="2.40681" y2="5.05491" gradientUnits="userSpaceOnUse">
<stop stop-color="#D6E8F6"/>
<stop offset="1" stop-color="#48A1D6"/>
</linearGradient>
<linearGradient id="paint2_linear_43_2918" x1="10.626" y1="8.75002" x2="12.8942" y2="3.11323" gradientUnits="userSpaceOnUse">
<stop stop-color="#D4E9F6"/>
<stop offset="1" stop-color="#1493C4"/>
</linearGradient>
<linearGradient id="paint3_linear_43_2918" x1="2.83402" y1="6.60703" x2="6.56728" y2="9.7178" gradientUnits="userSpaceOnUse">
<stop stop-color="#D8EBF6"/>
<stop offset="1" stop-color="#3189BA"/>
</linearGradient>
<linearGradient id="paint4_linear_43_2918" x1="13.5324" y1="12.7314" x2="16.0887" y2="9.20152" gradientUnits="userSpaceOnUse">
<stop stop-color="#9CC3DF"/>
<stop offset="1" stop-color="#127EAA"/>
</linearGradient>
<linearGradient id="paint5_linear_43_2918" x1="7.94642" y1="11.2367" x2="11.7079" y2="14.4232" gradientUnits="userSpaceOnUse">
<stop stop-color="#DDEDF7"/>
<stop offset="1" stop-color="#3485B3"/>
</linearGradient>
<linearGradient id="paint6_linear_43_2918" x1="18.5658" y1="12.937" x2="18.5658" y2="9.14517" gradientUnits="userSpaceOnUse">
<stop stop-color="#646267"/>
<stop offset="1" stop-color="#646267"/>
</linearGradient>
<linearGradient id="paint7_linear_43_2918" x1="19.7387" y1="8.24153" x2="19.7387" y2="4.54728" gradientUnits="userSpaceOnUse">
<stop stop-color="#626267"/>
<stop offset="1" stop-color="#646267"/>
</linearGradient>
<linearGradient id="paint8_linear_43_2918" x1="20.8987" y1="3.77654" x2="20.8987" y2="0.0194972" gradientUnits="userSpaceOnUse">
<stop stop-color="#6B696E"/>
<stop offset="1" stop-color="#E9EBED"/>
</linearGradient>
</defs>
</svg>
