<svg width="60" height="24" viewBox="0 0 60 24" fill="none" xmlns="http://www.w3.org/2000/svg">
<path id="invoice" fill-rule="evenodd" clip-rule="evenodd" d="M0 2C0 0.895433 0.895431 0 2 0H58C59.1046 0 60 0.895431 60 2V21.0137C60 22.1183 59.1046 23.0137 58 23.0137H2C0.895432 23.0137 0 22.1183 0 21.0137V2ZM12.0057 14.7949H10.5591V8.38477H12.0057V14.7949ZM17.7938 14.7949H19.3037V8.38477H17.8752V12.2815L15.4703 8.38477H13.7344V14.7949H15.1538V10.5818L17.7938 14.7949ZM23.5454 12.8963L25.0734 8.38477H26.5923L24.2507 14.7949H22.777L20.4263 8.38477H21.9994L23.5454 12.8963ZM30.4638 13.5202C29.5687 13.5202 28.6104 12.9235 28.6104 11.5854C28.6104 10.2474 29.5687 9.6416 30.4638 9.6416C31.3498 9.6416 32.3082 10.2474 32.3082 11.5854C32.3082 12.9235 31.3498 13.5202 30.4638 13.5202ZM27.1274 11.5942C27.1274 9.55998 28.6554 8.24902 30.4636 8.24902C32.2628 8.24902 33.7907 9.55998 33.7907 11.5942C33.7907 13.6194 32.2628 14.9304 30.4636 14.9304C28.6554 14.9304 27.1274 13.6194 27.1274 11.5942ZM35.1572 14.7949H36.6038V8.38477H35.1572V14.7949ZM41.289 14.9304C39.4447 14.9304 37.9619 13.6014 37.9619 11.6033C37.9619 9.60519 39.4808 8.24902 41.271 8.24902C43.1967 8.24902 44.0466 9.48765 44.2545 10.4098L42.9074 10.8348C42.8079 10.3918 42.4011 9.64135 41.271 9.64135C40.4121 9.64135 39.4447 10.2561 39.4447 11.6033C39.4447 12.8057 40.3307 13.5019 41.289 13.5019C42.4011 13.5019 42.8441 12.7605 42.9707 12.2994L44.3359 12.6882C44.1279 13.5742 43.2781 14.9304 41.289 14.9304ZM45.6572 14.7949H49.7257V13.4387H47.0857V12.2091H49.4726V10.9524H47.0857V9.73189H49.7167V8.38477H45.6572V14.7949Z" fill="#B8C1CD"/>
</svg>
