<svg width="195" height="70" viewBox="0 0 195 70" fill="none" xmlns="http://www.w3.org/2000/svg">
<path fill-rule="evenodd" clip-rule="evenodd" d="M0.385082 11.095C0.243257 9.9913 0.115048 8.89982 0 7.82104C0.209219 9.19572 0.446804 10.5969 0.71298 12.019C0.979383 13.4475 1.27438 14.8989 1.60001 16.3666C1.927 17.842 2.28235 19.3356 2.66675 20.8419C3.0566 22.3591 3.47685 23.8885 3.92525 25.4252C4.26971 26.6031 4.62529 27.7561 4.98655 28.8864C5.35257 30.0242 5.72766 31.1352 6.10934 32.2207C6.49533 33.3136 6.88858 34.3806 7.28887 35.4187C7.69188 36.4646 8.1026 37.4819 8.51718 38.4674C8.33474 38.3809 8.15252 38.3067 7.97008 38.2479C7.78809 38.1885 7.60429 38.1447 7.42411 38.1145C7.24348 38.085 7.06195 38.0694 6.882 38.0671C6.70274 38.0671 6.52438 38.0805 6.34852 38.1084C5.9387 36.8705 5.53751 35.5848 5.14993 34.2539C4.7628 32.9326 4.38725 31.5652 4.026 30.1601C3.66701 28.7627 3.3196 27.3266 2.98921 25.852C2.65836 24.3868 2.34339 22.8862 2.0459 21.3529C1.81739 20.1825 1.60477 19.0215 1.40531 17.8672C1.20698 16.7179 1.0225 15.5765 0.851854 14.4469C0.683026 13.3182 0.528268 12.2006 0.385082 11.095ZM8.44343 44.8213L6.65281 39.5711C7.14795 39.5909 7.64785 39.7222 8.14549 39.9582C8.64811 40.1976 9.14915 40.5432 9.63907 40.9909C10.1333 41.4412 10.6182 41.9948 11.0839 42.6422C11.5527 43.2951 12.0015 44.0441 12.4209 44.8797L8.44343 44.8213ZM5.17671 39.8654C5.12973 39.8865 5.08367 39.9074 5.03556 39.931C4.98995 39.9535 4.94366 39.9777 4.89805 40.0034C4.85198 40.029 4.80592 40.056 4.76031 40.0828L4.72814 40.1031C4.69314 40.125 4.65765 40.1473 4.62348 40.1709C4.37228 40.337 4.13764 40.5008 3.91708 40.6739C3.69833 40.8466 3.49342 41.0297 3.30235 41.2372C3.10993 41.4448 2.92816 41.6769 2.75843 41.949C2.58801 42.219 2.42667 42.5285 2.27373 42.8918C2.70147 42.8315 3.13557 42.8315 3.57375 42.8918C4.01738 42.9513 4.46236 43.0716 4.91144 43.2508C5.36482 43.4312 5.81979 43.6734 6.27522 43.9702C6.7336 44.2711 7.19175 44.6307 7.64717 45.046L5.82138 39.6521C5.76647 39.6648 5.71337 39.678 5.65687 39.6936C5.60354 39.7079 5.55044 39.7243 5.49575 39.7415L5.41934 39.7685L5.33464 39.7985C5.28941 39.8164 5.24564 39.8354 5.20085 39.8549L5.20032 39.8552L5.17671 39.8654ZM23.0064 62.1668C22.9084 62.2382 22.7967 62.313 22.679 62.3919L22.6787 62.392L22.6783 62.3923L22.6769 62.3933C22.6129 62.4361 22.5473 62.4801 22.4811 62.5253C22.2953 62.6511 22.1071 62.789 21.9431 62.9329C21.7833 63.0786 21.6481 63.2329 21.5655 63.399C21.4845 63.5642 21.4538 63.7421 21.5017 63.9336C21.5103 63.9688 21.5199 64.0021 21.5289 64.0357C21.536 64.0575 21.5434 64.0787 21.5507 64.0997L21.5509 64.1003L21.551 64.1004L21.5512 64.1009L21.5512 64.101L21.5628 64.1342C21.5755 64.1673 21.587 64.1993 21.6004 64.2322L21.6097 64.2538L21.618 64.2733C21.6255 64.2911 21.6329 64.3087 21.641 64.3268C21.5484 64.4637 21.467 64.6037 21.3886 64.7387L21.3885 64.7388L21.346 64.8117L21.3109 64.8715C21.2097 65.045 21.1121 65.208 20.9973 65.3464C20.8836 65.483 20.754 65.5965 20.5929 65.6736C20.4318 65.7483 20.241 65.7884 20.0011 65.7789C19.7667 65.7696 19.54 65.7258 19.3199 65.6555C19.1032 65.5849 18.8912 65.4894 18.6861 65.372C18.4805 65.2561 18.2813 65.1231 18.0864 64.977C17.891 64.8322 17.699 64.6752 17.512 64.5145C17.5075 64.4895 17.5025 64.4662 17.4973 64.4442C17.4944 64.4276 17.4903 64.4118 17.4861 64.3953L17.4809 64.3747L17.4756 64.3534L17.4756 64.3532L17.4698 64.3305C17.4676 64.322 17.4653 64.3135 17.4628 64.3048L17.4567 64.2849C17.4514 64.2679 17.4463 64.2512 17.4417 64.2338C17.3836 64.0609 17.3024 63.9032 17.2041 63.7573C17.1052 63.6136 16.9863 63.482 16.8567 63.3599C16.7273 63.2397 16.5862 63.1298 16.4403 63.0275C16.2948 62.9265 16.1437 62.8328 15.9944 62.7459L15.9989 62.7591L16.0069 62.7718L16.0114 62.7843L16.0187 62.7985C16.0262 62.8249 16.0336 62.853 16.0414 62.8825L16.0455 62.8969C16.0519 62.9194 16.0585 62.9427 16.0666 62.9658C16.0732 62.9925 16.081 63.0176 16.0885 63.042L16.0913 63.0509L16.0984 63.072C16.1057 63.0937 16.1128 63.1149 16.1212 63.1364C16.2789 63.5984 16.5081 64.0305 16.7845 64.419C17.0582 64.8041 17.3836 65.1528 17.7389 65.4458C18.0993 65.7415 18.4914 65.9863 18.9026 66.1635C19.3194 66.3446 19.7585 66.4563 20.2031 66.4821C20.6585 66.508 21.084 66.4311 21.4665 66.2679C21.8616 66.0979 22.2093 65.837 22.4884 65.5027C22.7779 65.1578 22.9928 64.7335 23.1103 64.2565C23.2293 63.7645 23.2424 63.2179 23.1219 62.6483L23.0064 62.1668ZM9.01209 46.4788C9.62455 47.2033 10.2259 48.0318 10.8063 48.9542C11.3952 49.8873 11.9616 50.9171 12.5023 52.0369C13.0465 53.1663 13.5625 54.3878 14.0418 55.6885C14.5251 57.0014 14.971 58.394 15.3683 59.8586C15.3974 59.2198 15.4053 58.5642 15.3931 57.8978C15.3797 57.2313 15.3465 56.5521 15.2903 55.8671C15.2365 55.1802 15.1605 54.4885 15.0604 53.7921C14.9619 53.0953 14.843 52.3984 14.7005 51.7002C14.6034 51.2313 14.5001 50.7732 14.3885 50.3255C14.2764 49.8782 14.1561 49.4421 14.0302 49.0168C13.9047 48.592 13.7724 48.1777 13.6335 47.7772C13.4944 47.3771 13.3485 46.9886 13.2001 46.6122L9.01209 46.4788ZM35.4464 30.2466C35.2117 30.2847 34.9787 30.3289 34.7463 30.3775C34.513 30.426 34.2816 30.4801 34.0515 30.5384C33.8209 30.5962 33.5908 30.66 33.3632 30.7272C33.1347 30.7952 32.9076 30.8679 32.6825 30.9441L31.935 37.6074C32.6879 36.7557 33.4762 35.9586 34.2963 35.2179C35.103 34.4904 35.9385 33.8178 36.8022 33.2047C37.6495 32.6022 38.5236 32.0544 39.4193 31.5684C40.3001 31.0896 41.2026 30.6691 42.1248 30.3074C41.5884 30.1444 41.0712 30.0319 40.5566 29.964C40.0369 29.8944 39.5241 29.8671 38.999 29.873C38.471 29.8787 37.9304 29.9182 37.3661 29.9795C36.7965 30.0419 36.2013 30.1283 35.568 30.227L35.536 30.2313L35.5065 30.2368L35.4763 30.2407L35.4464 30.2466ZM20.0796 45.1753L29.7529 40.3701C28.8087 41.7087 27.9428 43.143 27.1724 44.6639C26.385 46.2169 25.6945 47.8589 25.1179 49.5721C24.5309 51.3235 24.0632 53.1486 23.7298 55.0284C23.3908 56.9456 23.195 58.9166 23.1555 60.9224C22.6735 60.3083 22.2324 59.6534 21.8351 58.9611C21.4395 58.2699 21.0887 57.5426 20.7869 56.7825C20.4863 56.0248 20.236 55.2349 20.0372 54.4168C19.84 53.6031 19.6945 52.7612 19.6056 51.8976C19.5468 51.3212 19.5139 50.7432 19.5071 50.1694C19.4989 49.5982 19.5164 49.0293 19.5593 48.4668C19.6017 47.9054 19.6655 47.3497 19.7524 46.798C19.84 46.2509 19.9485 45.7093 20.0796 45.1753Z" fill="#000105"/>
<path fill-rule="evenodd" clip-rule="evenodd" d="M20.8713 42.6423C20.8859 42.6026 20.9024 42.5632 20.9183 42.523C20.9337 42.4849 20.9505 42.4452 20.9669 42.405C20.9828 42.3657 20.9998 42.3276 21.0177 42.287C21.0325 42.2473 21.0497 42.2094 21.0651 42.1688C21.5217 40.6117 22.2544 39.2778 23.0897 37.8573C23.9084 36.4683 24.8209 35.0049 25.6643 33.186C26.4842 31.4146 27.2319 29.3158 27.7549 26.638C28.2612 24.0472 28.5521 20.9321 28.4883 17.0822C28.4627 15.4227 28.4264 13.8164 28.3667 12.2645C28.3079 10.7357 28.2249 9.25801 28.1039 7.83455C27.9857 6.42833 27.8287 5.07136 27.6204 3.76362C27.4155 2.472 27.1577 1.22553 26.8373 0.0249023C27.1876 0.929629 27.5212 1.86045 27.8337 2.81533C28.1507 3.77678 28.4466 4.76161 28.7218 5.76891C28.9984 6.78482 29.2551 7.82729 29.4886 8.89063C29.7214 9.96464 29.9361 11.0632 30.1212 12.1862C30.3684 13.6693 30.5946 15.3099 30.7705 17.0933C30.9497 18.9066 31.0777 20.8779 31.122 22.998C31.1667 25.1644 31.1249 27.4964 30.9617 29.9889C30.7943 32.5515 30.4943 35.2997 30.0257 38.2317L30.0209 38.2358L30.0205 38.244L20.8713 42.6423Z" fill="#404341"/>
<path fill-rule="evenodd" clip-rule="evenodd" d="M64.8346 51.265C58.588 51.265 55.7769 48.1417 55.7769 44.0814L56.0894 43.7692H59.8374L60.1496 44.0814C60.1496 46.2678 61.3991 47.517 65.1471 47.517C67.9582 47.517 69.5198 46.58 69.5198 44.7061C69.5198 42.5198 68.2704 41.8951 63.8977 41.2704C59.5249 40.6456 56.0894 39.0842 56.0894 34.7113C56.0894 31.5879 58.588 28.7771 64.5224 28.7771C70.4568 28.7771 72.9554 31.5879 72.9554 35.336L72.6431 35.6484H68.8951L68.5826 35.336C68.5826 33.4621 67.6457 32.5249 64.2101 32.5249C61.3991 32.5249 60.4621 33.4621 60.4621 34.7113C60.4621 36.5854 61.7113 37.2101 66.084 37.8348C70.4568 38.4593 73.8925 40.3334 73.8925 44.7061C73.8925 48.1417 71.3937 51.265 64.8346 51.265ZM83.5738 38.7718C81.0752 38.7718 80.1383 40.6456 80.1383 43.1445C80.1383 45.6431 81.0752 47.517 83.5738 47.517C86.0724 47.517 87.0096 45.6431 87.0096 43.1445C87.0096 40.6456 86.0724 38.7718 83.5738 38.7718ZM84.5108 51.265C81.6999 51.265 80.4505 49.7034 80.4505 49.7034H80.1383V56.8872L79.8258 57.1994H76.0778L75.7655 56.8872V35.6484L76.0778 35.336H79.5136L79.8258 35.6484L80.1383 36.5854H80.4505C80.4505 36.5854 81.6999 35.0237 84.5108 35.0237C88.2588 35.0237 91.3821 38.147 91.3821 43.1445C91.3821 48.1417 88.2588 51.265 84.5108 51.265ZM103.25 39.0842H101.064C98.5652 39.0842 97.6283 40.3334 97.6283 43.1445V50.6405L97.3158 50.9528H93.5678L93.2556 50.6405V35.6484L93.5678 35.336H97.0036L97.3158 35.6484L97.6283 36.5854H97.9405C97.9405 36.5854 98.5652 35.336 101.376 35.336H103.25L103.563 35.6484V38.7718L103.25 39.0842ZM114.806 51.265C113.557 54.3885 112.307 56.2624 107.934 56.2624H106.373L106.06 55.9502V52.8269L106.373 52.5144H107.934C109.496 52.5144 109.809 52.2022 110.121 51.265V50.9528L105.123 38.7718V35.6484L105.436 35.336H108.247L108.559 35.6484L112.307 46.2678H112.619L116.367 35.6484L116.68 35.336H119.491L119.803 35.6484V38.7718L114.806 51.265ZM135.107 50.9528H133.233L132.609 50.6405L128.236 45.9553H127.924L126.049 47.8295L125.737 48.4542V50.6405L125.425 50.9528H121.677L121.364 50.6405V29.4018L121.677 29.0893H125.425L125.737 29.4018V41.8951H126.049L132.296 35.6484L132.921 35.336H134.795L135.107 35.6484V38.7718L131.359 42.5198V42.832L135.419 47.517V50.6405L135.107 50.9528ZM146.663 41.2704C146.663 40.9581 146.351 38.7718 143.852 38.7718C141.353 38.7718 141.041 40.9581 141.041 41.2704L141.353 41.5828H146.351L146.663 41.2704ZM151.348 44.3937L151.036 44.7061H141.353L141.041 45.0184C141.041 45.6431 141.665 47.517 144.164 47.517C145.101 47.517 146.038 47.2047 146.351 46.58L146.663 46.2678H150.411L150.723 46.58C150.411 48.4542 148.849 51.265 144.164 51.265C138.854 51.265 136.356 47.517 136.356 43.1445C136.356 38.7718 138.854 35.0237 143.852 35.0237C148.849 35.0237 151.348 38.7718 151.348 43.1445V44.3937ZM163.528 39.0842H161.342C158.843 39.0842 157.906 40.3334 157.906 43.1445V50.6405L157.594 50.9528H153.846L153.533 50.6405V35.6484L153.846 35.336H157.281L157.594 35.6484L157.906 36.5854H158.219C158.219 36.5854 158.843 35.336 161.654 35.336H163.528L163.841 35.6484V38.7718L163.528 39.0842Z" fill="#000105"/>
<path fill-rule="evenodd" clip-rule="evenodd" d="M121.406 57.2992H125.541C127.845 57.2992 129.201 58.6548 129.201 60.5357C129.201 61.8066 128.455 62.7555 127.422 63.1283C128.693 63.4672 129.574 64.5686 129.574 65.992C129.574 67.9237 128.083 69.3132 125.846 69.3132H121.406V57.2992ZM123.423 62.3827H125.27C126.456 62.3827 127.168 61.7049 127.168 60.7052C127.168 59.6885 126.456 59.0276 125.219 59.0276H123.423V62.3827ZM123.423 67.5848H125.49C126.71 67.5848 127.506 66.924 127.506 65.8564C127.506 64.8228 126.812 64.0942 125.558 64.0942H123.423V67.5848ZM132.61 61.7152L130.434 61.5651C130.416 61.3963 130.378 61.1149 130.378 60.871C130.378 58.7698 131.954 56.875 134.712 56.875C137.394 56.875 138.989 58.6197 138.989 60.7021C138.989 62.278 138.107 63.5725 136.644 64.473L134.28 65.9363C133.699 66.2928 133.211 66.7243 133.042 67.3246H139.064V69.3132H130.265C130.303 67.2308 131.035 65.5986 133.155 64.2854L135.162 63.0284C136.25 62.3531 136.719 61.6214 136.719 60.7397C136.719 59.7454 136.044 58.8449 134.674 58.8449C133.248 58.8449 132.554 59.8392 132.554 61.0961C132.554 61.2837 132.592 61.5088 132.61 61.7152ZM140.556 57.2992H144.69C146.995 57.2992 148.351 58.6548 148.351 60.5357C148.351 61.8066 147.605 62.7555 146.571 63.1283C147.842 63.4672 148.723 64.5686 148.723 65.992C148.723 67.9237 147.232 69.3132 144.995 69.3132H140.556V57.2992ZM142.572 62.3827H144.419C145.605 62.3827 146.317 61.7049 146.317 60.7052C146.317 59.6885 145.605 59.0276 144.368 59.0276H142.572V62.3827ZM142.572 67.5848H144.64C145.86 67.5848 146.656 66.924 146.656 65.8564C146.656 64.8228 145.961 64.0942 144.707 64.0942H142.572V67.5848ZM154.986 65.1617C154.986 66.7376 155.867 67.7882 157.206 67.7882C158.493 67.7882 159.391 66.7206 159.391 65.1447C159.391 63.5689 158.51 62.5861 157.222 62.5861C155.935 62.5861 154.986 63.5858 154.986 65.1617ZM161.289 57.0451V67.8051C161.289 68.5507 161.357 69.1776 161.374 69.3132H159.493C159.459 69.1268 159.408 68.5846 159.408 68.2457C159.019 68.9404 158.154 69.5165 156.985 69.5165C154.613 69.5165 153.02 67.6526 153.02 65.1617C153.02 62.7894 154.63 60.8407 156.951 60.8407C158.392 60.8407 159.12 61.5016 159.374 62.0269V57.0451H161.289ZM164.632 64.2806H168.682C168.648 63.3147 168.004 62.4505 166.649 62.4505C165.412 62.4505 164.7 63.3994 164.632 64.2806ZM168.902 66.4326L170.563 66.9579C170.122 68.3982 168.818 69.5674 166.835 69.5674C164.598 69.5674 162.616 67.9407 162.616 65.1447C162.616 62.5352 164.548 60.8068 166.632 60.8068C169.173 60.8068 170.665 62.4844 170.665 65.0939C170.665 65.4159 170.631 65.687 170.614 65.7209H164.581C164.632 66.9748 165.615 67.8729 166.835 67.8729C168.021 67.8729 168.631 67.2459 168.902 66.4326ZM173.889 69.3132H171.94V61.061H173.821V62.1116C174.296 61.2643 175.329 60.8238 176.261 60.8238C177.346 60.8238 178.295 61.3152 178.735 62.281C179.379 61.1966 180.345 60.8238 181.413 60.8238C182.904 60.8238 184.327 61.7727 184.327 63.9586V69.3132H182.429V64.2806C182.429 63.3147 181.938 62.5861 180.836 62.5861C179.803 62.5861 179.125 63.3994 179.125 64.4161V69.3132H177.193V64.2806C177.193 63.3316 176.719 62.5861 175.6 62.5861C174.55 62.5861 173.889 63.3655 173.889 64.4161V69.3132ZM189.754 67.8051C190.974 67.8051 192.059 66.907 192.059 65.1786C192.059 63.4672 190.974 62.5861 189.754 62.5861C188.551 62.5861 187.45 63.4672 187.45 65.1786C187.45 66.8901 188.551 67.8051 189.754 67.8051ZM189.754 60.8068C192.228 60.8068 194.041 62.6538 194.041 65.1786C194.041 67.7204 192.228 69.5674 189.754 69.5674C187.297 69.5674 185.484 67.7204 185.484 65.1786C185.484 62.6538 187.297 60.8068 189.754 60.8068Z" fill="#1CB696"/>
</svg>
