<svg width="179" height="64" viewBox="0 0 179 64" fill="none" xmlns="http://www.w3.org/2000/svg">
<path fill-rule="evenodd" clip-rule="evenodd" d="M0.35 10.16C0.223333 9.14664 0.106667 8.14664 0 7.15997C0.4 9.78664 0.89 12.4 1.47 15C1.75667 16.3466 2.08333 17.7166 2.45 19.11C2.81667 20.5033 3.19333 21.9333 3.58 23.4C3.91333 24.4733 4.24667 25.5333 4.58 26.58C5.22 28.58 5.92333 30.58 6.69 32.58C7.05 33.52 7.42667 34.4533 7.82 35.38C7.65828 35.2987 7.49123 35.2286 7.32 35.17C6.9973 35.0626 6.66006 35.0052 6.32 35C6.15691 34.9874 5.99309 34.9874 5.83 35C5.45 33.8866 5.08667 32.7066 4.74 31.46C4.39333 30.2133 4.06 28.9633 3.74 27.71C3.37333 26.39 3.04 25.0566 2.74 23.71C2.44 22.3633 2.15 20.9866 1.87 19.58C1.46333 17.4733 1.1 15.36 0.78 13.24C0.62 12.2 0.476667 11.1733 0.35 10.16ZM6.12451 36.3008L6.08 36.17L6.11 36.3L6.12451 36.3008ZM6.12451 36.3008L7.72 40.99L11.37 41.04C11.0142 40.3255 10.6029 39.6401 10.14 38.99C9.75633 38.4857 9.32428 38.0202 8.85 37.6C8.44161 37.2215 7.98005 36.9048 7.48 36.66C7.05679 36.4505 6.59581 36.3284 6.12451 36.3008ZM4.75 36.56L4.62 36.62L4.49 36.69L4.36 36.76L4.24 36.84C4.02 36.9866 3.80333 37.14 3.59 37.3C3.38671 37.4581 3.19612 37.632 3.02 37.82C2.83324 38.0204 2.66583 38.238 2.52 38.47C2.34627 38.7471 2.19575 39.0381 2.07 39.34C2.46476 39.285 2.86524 39.285 3.26 39.34C3.68212 39.3985 4.0953 39.5093 4.49 39.67C4.92747 39.8481 5.34619 40.0692 5.74 40.33C6.18212 40.6302 6.60007 40.9645 6.99 41.33L5.32 36.33H5.17H5.02L4.87 36.38L4.72 36.44L4.75 36.56ZM21.12 57L20.64 57.33C20.4692 57.4432 20.3056 57.5667 20.15 57.7C20.0044 57.8197 19.8823 57.9656 19.79 58.13C19.7112 58.2806 19.6898 58.4548 19.73 58.62C19.7264 58.6499 19.7264 58.6801 19.73 58.71V58.8V58.89V58.98C19.62 59.15 19.52 59.32 19.43 59.48C19.3455 59.6343 19.2485 59.7815 19.14 59.92C19.0401 60.0458 18.9138 60.1482 18.77 60.22C18.6005 60.2957 18.4154 60.33 18.23 60.32C18.0193 60.3113 17.8108 60.2743 17.61 60.21C17.4088 60.1463 17.2145 60.0625 17.03 59.96C16.839 59.852 16.6553 59.7318 16.48 59.6L15.95 59.18C15.9561 59.1604 15.9561 59.1395 15.95 59.12V59.06V59C15.9453 58.9802 15.9453 58.9597 15.95 58.94C15.9002 58.7845 15.8295 58.6365 15.74 58.5C15.6468 58.3656 15.5396 58.2415 15.42 58.13C15.3005 58.0181 15.1736 57.9145 15.04 57.82L14.62 57.56V57.64C14.6164 57.6665 14.6164 57.6934 14.62 57.72V57.8V57.88C14.7731 58.2949 14.9853 58.6856 15.25 59.04C15.501 59.3904 15.7968 59.7065 16.13 59.98C16.454 60.249 16.8142 60.4711 17.2 60.64C17.5767 60.8054 17.9794 60.9036 18.39 60.93C18.7862 60.9575 19.1833 60.8924 19.55 60.74C19.914 60.5838 20.236 60.3439 20.49 60.04C20.8093 59.7534 21.059 59.3977 21.22 59C21.331 58.5129 21.331 58.0071 21.22 57.52L21.12 57ZM8.27 42.64L8.27107 42.6413L8.23 42.64H8.27ZM8.27107 42.6413L12.08 42.76C12.1077 42.8313 12.1355 42.9018 12.163 42.9719L12.1631 42.9722C12.2747 43.256 12.3838 43.5333 12.48 43.83C12.6 44.2 12.72 44.58 12.84 44.97C12.96 45.36 13.07 45.76 13.17 46.17C13.27 46.58 13.37 47 13.46 47.43C13.58 48.07 13.7 48.71 13.79 49.35C13.8767 49.95 13.9467 50.5833 14 51.25C14.1154 52.4697 14.1521 53.6955 14.11 54.92C13.7367 53.56 13.33 52.2833 12.89 51.09C12.45 49.8966 11.98 48.78 11.48 47.74C11.014 46.7679 10.4932 45.823 9.92 44.91C9.42383 44.1163 8.87284 43.3582 8.27107 42.6413ZM32.53 27.74C32.0967 27.8133 31.67 27.9033 31.25 28.01L30.63 28.18L30.01 28.39L29.33 34.5C30.0117 33.7299 30.7362 32.9987 31.5 32.31C32.2268 31.6494 32.9914 31.0317 33.79 30.46C34.5589 29.9088 35.3603 29.4045 36.19 28.95C36.9918 28.5122 37.8201 28.1248 38.67 27.79C38.1994 27.6472 37.7177 27.5435 37.23 27.48C36.7559 27.4187 36.278 27.3919 35.8 27.4C35.2986 27.4064 34.7978 27.4398 34.3 27.5C33.7467 27.5666 33.1967 27.6433 32.65 27.73H32.54L32.53 27.74ZM18.43 41.42L27.31 37C26.423 38.2734 25.6309 39.6104 24.94 41C24.2511 42.4499 23.6663 43.947 23.19 45.48C22.0655 48.8386 21.4586 52.3488 21.39 55.89C20.9438 55.32 20.5394 54.7184 20.18 54.09C19.7993 53.448 19.4652 52.7797 19.18 52.09C18.8999 51.3835 18.6694 50.6584 18.49 49.92C18.1799 48.6427 18.0155 47.3343 18 46.02C17.96 45.6466 17.9733 45.3089 17.9867 44.9711C17.9933 44.8022 18 44.6333 18 44.46C18.0067 43.9266 18.05 43.41 18.13 42.91C18.21 42.41 18.31 41.9133 18.43 41.42Z" fill="#1D1D1B"/>
<path opacity="0.7" fill-rule="evenodd" clip-rule="evenodd" d="M24.63 0C24.9285 1.13028 25.1688 2.27512 25.35 3.43C25.54 4.63 25.68 5.87 25.79 7.17C25.9 8.47 26 9.83 26 11.23C26 12.63 26.09 14.13 26.11 15.65C26.1943 18.5887 25.9697 21.5282 25.44 24.42C25.0475 26.4909 24.4027 28.5059 23.52 30.42C22.8089 31.8903 22.0212 33.3223 21.16 34.71C20.3724 35.9588 19.7473 37.303 19.3 38.71V38.82V38.93V39.04V39.15L27.7 35.15C28.1067 32.6433 28.3934 30.1233 28.56 27.59C28.71 25.3 28.75 23.16 28.71 21.17C28.67 19.3633 28.5634 17.56 28.39 15.76C28.2434 14.2533 28.0434 12.75 27.79 11.25C27.6234 10.2367 27.43 9.23667 27.21 8.25C26.5598 5.43875 25.6973 2.68085 24.63 0Z" fill="#1D1D1B"/>
<path fill-rule="evenodd" clip-rule="evenodd" d="M59.4999 47C53.7699 47 51.1899 44.13 51.1899 40.41L51.4799 40.12H54.9199L55.2099 40.41C55.2099 42.41 56.3599 43.56 59.7899 43.56C62.3699 43.56 63.7899 42.7 63.7899 40.98C63.7899 38.98 62.6399 38.4 58.6299 37.83C54.6199 37.26 51.4599 35.83 51.4599 31.83C51.4599 28.97 53.7499 26.39 59.1999 26.39C64.6499 26.39 66.9999 29 66.9999 32.41L66.7199 32.7H63.2299L62.9399 32.41C62.9399 30.69 62.0799 29.83 58.9399 29.83C56.3599 29.83 55.4999 30.69 55.4999 31.83C55.4999 33.55 56.6499 34.12 60.6599 34.7C64.6699 35.28 67.8199 37 67.8199 41C67.8199 44.15 65.5199 47 59.4999 47Z" fill="#1D1D1B"/>
<path fill-rule="evenodd" clip-rule="evenodd" d="M73.83 45.57C74.808 46.5637 76.1684 47.0852 77.56 47C81 47 83.91 44.16 83.91 39.58C83.91 35 81.04 32.13 77.6 32.13C76.2084 32.0448 74.848 32.5663 73.87 33.56H73.58L73.29 32.7L73 32.41H69.82L69.53 32.7V52.16L69.82 52.45H73.25L73.54 52.16V45.57H73.83ZM73.55 39.56C73.55 37.28 74.41 35.56 76.7 35.56C78.99 35.56 79.85 37.29 79.85 39.56C79.85 41.83 78.99 43.56 76.7 43.56C74.41 43.56 73.55 41.84 73.55 39.56Z" fill="#1D1D1B"/>
<path fill-rule="evenodd" clip-rule="evenodd" d="M122.28 46.74H124L124.28 46.46V43.59L120.56 39.29V39L124.01 35.57V32.7L123.72 32.41H122L121.43 32.7L115.7 38.43H115.41V27L115.12 26.71H111.68L111.39 27V46.44L111.68 46.73H115.12L115.41 46.44V44.44L115.7 43.87L117.42 42.15H117.71L121.71 46.45L122.28 46.74ZM94.7301 35.85H92.7601C90.4701 35.85 89.6101 37 89.6101 39.58V46.45L89.3201 46.74H85.8701L85.5901 46.46V32.7L85.8801 32.41H89.0001L89.2901 32.7L89.5801 33.56H89.8701C89.8701 33.56 90.4401 32.41 93.0201 32.41H94.7301L95.0201 32.7V35.57L94.7301 35.85ZM105.36 47C104.21 49.87 103.07 51.58 99.0501 51.58H97.6301L97.3401 51.29V48.46L97.6301 48.17H99.0601C100.49 48.17 100.78 47.88 101.06 47.02V46.73L96.4801 35.56V32.7L96.7701 32.41H99.3401L99.6301 32.7L103.07 42.45H103.36L106.8 32.7L107.09 32.41H109.67L109.96 32.7V35.57L105.36 47Z" fill="#1D1D1B"/>
<path fill-rule="evenodd" clip-rule="evenodd" d="M138.62 41.01L138.91 40.72L138.86 40.73V39.58C138.86 35.57 136.57 32.13 131.99 32.13C127.41 32.13 125.12 35.57 125.12 39.58C125.12 43.59 127.42 47.03 132.29 47.03C136.57 47.03 138 44.45 138.29 42.73L138 42.44H134.6L134.31 42.73C133.838 43.3447 133.081 43.6703 132.31 43.59C131.626 43.6686 130.938 43.4712 130.399 43.0414C129.861 42.6117 129.515 41.985 129.44 41.3L129.73 41.01H138.62ZM132.03 35.5719C133.342 35.5719 134.448 36.5486 134.61 37.85L134.32 38.14H129.74L129.45 37.85C129.612 36.5486 130.719 35.5719 132.03 35.5719Z" fill="#1D1D1B"/>
<path fill-rule="evenodd" clip-rule="evenodd" d="M150.08 35.85H148.08C145.79 35.85 144.93 37 144.93 39.58V46.45L144.64 46.74H141.2L140.91 46.45V32.7L141.2 32.41H144.35L144.64 32.7L144.93 33.56H145.22C145.22 33.56 145.79 32.41 148.37 32.41H150.09L150.36 32.7V35.57L150.08 35.85Z" fill="#1D1D1B"/>
<path fill-rule="evenodd" clip-rule="evenodd" d="M115.24 52.84C117.24 52.84 118.43 54.02 118.43 55.66C118.458 56.6696 117.832 57.5822 116.88 57.92C118.013 58.2132 118.793 59.2503 118.76 60.42C118.75 61.2478 118.392 62.0333 117.774 62.5834C117.155 63.1335 116.333 63.3973 115.51 63.31H111.64V52.84H115.24ZM115 57.28C115.419 57.335 115.841 57.2058 116.157 56.9258C116.474 56.6458 116.653 56.2425 116.65 55.82C116.65 54.93 116.03 54.36 114.95 54.36H113.38V57.28H115ZM116.95 60.3C116.95 61.23 116.25 61.81 115.19 61.81L113.39 61.76V58.76H115.25C115.687 58.7043 116.127 58.8427 116.454 59.1388C116.781 59.4349 116.962 59.8591 116.95 60.3Z" fill="#959595"/>
<path fill-rule="evenodd" clip-rule="evenodd" d="M119.7 56.75C119.689 56.5535 119.689 56.3565 119.7 56.16C119.703 55.2122 120.1 54.3083 120.796 53.6652C121.492 53.0221 122.425 52.6977 123.37 52.77C124.28 52.6923 125.182 52.9957 125.861 53.6079C126.54 54.2201 126.934 55.0863 126.95 56C126.912 57.3501 126.147 58.5741 124.95 59.2L122.95 60.44C122.482 60.6957 122.125 61.1162 121.95 61.62H127V63.31H119.54C119.491 61.5424 120.443 59.8982 122 59.06L123.7 58C124.461 57.6413 124.962 56.8907 125 56.05C125.011 55.5984 124.827 55.1639 124.497 54.8562C124.166 54.5485 123.72 54.397 123.27 54.44C122.765 54.4133 122.274 54.6101 121.927 54.978C121.581 55.3459 121.413 55.8477 121.47 56.35C121.47 56.51 121.47 56.7 121.47 56.87L119.7 56.75Z" fill="#959595"/>
<path fill-rule="evenodd" clip-rule="evenodd" d="M127.87 58.09C127.813 56.6581 128.343 55.265 129.338 54.2339C130.333 53.2028 131.707 52.6234 133.14 52.63C135.322 52.4873 137.298 53.9139 137.85 56.03L136.18 56.59C135.881 55.1913 134.608 54.2192 133.18 54.3C132.202 54.3015 131.27 54.7141 130.612 55.4371C129.954 56.16 129.63 57.1264 129.72 58.1C129.642 59.0678 129.972 60.0241 130.632 60.7367C131.291 61.4494 132.219 61.8532 133.19 61.85C134.637 61.897 135.927 60.9459 136.31 59.55L137.94 60.08C137.366 62.2032 135.397 63.6448 133.2 63.55C131.751 63.5911 130.351 63.0245 129.339 61.9875C128.327 60.9504 127.794 59.5373 127.87 58.09Z" fill="#959595"/>
<path fill-rule="evenodd" clip-rule="evenodd" d="M149.32 63.31C149.272 62.875 149.248 62.4376 149.25 62L149.21 52.62H147.54V56.93C147.088 56.2182 146.267 55.8293 145.43 55.93C144.468 55.955 143.558 56.3715 142.911 57.0832C142.263 57.7949 141.934 58.7401 142 59.7C141.919 60.6774 142.251 61.644 142.917 62.3646C143.582 63.0851 144.519 63.4934 145.5 63.49C146.352 63.5264 147.157 63.1026 147.61 62.38C147.612 62.6912 147.636 63.0019 147.68 63.31H149.32ZM147.6 59.7C147.6 61.07 146.81 62 145.69 62C144.52 62 143.75 61.07 143.71 59.72C143.638 59.1478 143.816 58.5723 144.199 58.1412C144.582 57.7101 145.133 57.4655 145.71 57.47C146.83 57.47 147.6 58.33 147.6 59.7Z" fill="#959595"/>
<path fill-rule="evenodd" clip-rule="evenodd" d="M154.3 63.53C155.774 63.6017 157.11 62.6685 157.55 61.26L156.17 60.81C155.944 61.602 155.191 62.1249 154.37 62.06C153.855 62.0789 153.353 61.8907 152.977 61.5376C152.602 61.1844 152.383 60.6955 152.37 60.18H157.63C157.65 59.9972 157.65 59.8128 157.63 59.63C157.63 57.35 156.33 55.89 154.12 55.89C152.115 56.0748 150.595 57.7809 150.642 59.7941C150.69 61.8073 152.288 63.4399 154.3 63.53ZM155.38 57.7377C155.717 58.0425 155.909 58.4755 155.91 58.93H152.38C152.449 58.014 153.222 57.3115 154.14 57.33C154.592 57.2848 155.042 57.4329 155.38 57.7377Z" fill="#959595"/>
<path fill-rule="evenodd" clip-rule="evenodd" d="M159 63.32V56.12H160.64V57C161.105 56.2797 161.913 55.8549 162.77 55.88C163.68 55.8289 164.532 56.3297 164.93 57.15C165.403 56.3189 166.305 55.827 167.26 55.88C167.975 55.8557 168.665 56.1424 169.152 56.6661C169.639 57.1897 169.876 57.8988 169.8 58.61V63.28H168.15V58.93C168.202 58.5398 168.076 58.1469 167.806 57.86C167.537 57.573 167.153 57.4225 166.76 57.45C166.346 57.4518 165.951 57.6247 165.669 57.9277C165.387 58.2307 165.242 58.6369 165.27 59.05V63.32H163.59V58.93C163.642 58.5398 163.516 58.1469 163.246 57.86C162.977 57.573 162.593 57.4225 162.2 57.45C161.783 57.4427 161.383 57.6128 161.098 57.918C160.814 58.2231 160.673 58.6346 160.71 59.05V63.32H159Z" fill="#959595"/>
<path fill-rule="evenodd" clip-rule="evenodd" d="M174.641 63.3596C176.689 63.387 178.376 61.7577 178.42 59.71C178.462 58.6995 178.083 57.7169 177.375 56.9951C176.666 56.2734 175.691 55.877 174.68 55.9C172.632 55.906 170.971 57.5624 170.961 59.6105C170.95 61.6587 172.593 63.3323 174.641 63.3596ZM174.69 57.71C175.794 57.71 176.69 58.6054 176.69 59.71C176.69 60.8146 175.794 61.71 174.69 61.71C173.585 61.71 172.69 60.8146 172.69 59.71C172.69 58.6054 173.585 57.71 174.69 57.71Z" fill="#959595"/>
</svg>
